<?xml version="1.0" encoding="UTF-8" standalone="no"?>
<!-- Created with Inkscape (http://www.inkscape.org/) -->

<svg
   xmlns="http://www.w3.org/2000/svg"
   width="155mm"
   height="96mm"
   viewBox="0 0 155 96"
   version="1.1">
  <defs
     id="defs2" />
  <g
     id="layer1"
     transform="translate(0,-201)">
    <path
       style="fill:#000000;stroke-width:0.26458335"
       d="m 110.18056,296.45251 c -5.57175,-1.00998 -10.468011,-3.34822 -15.329481,-7.32068 -4.13596,-3.37961 -9.434661,-10.41887 -15.964649,-21.20882 l -2.21379,-3.658 -0.54117,0.97474 c -5.82096,10.48457 -10.921259,16.50707 -17.451355,20.6068 -6.712842,4.21445 -16.390096,5.87245 -25.55132,4.37769 -8.238839,-1.34426 -14.709952,-4.71087 -20.85422,-10.84946 -6.3140501,-6.30822 -10.0432251,-14.18062 -11.32838816,-23.91459 -0.319725,-2.42163 -0.387098,-4.47311 -0.278669,-8.48544 0.203805,-7.54173 1.20664506,-12.73952 3.43463506,-17.80199 5.230251,-11.88427 15.3256361,-20.22366 26.6412751,-22.0073 2.513954,-0.39626 7.995854,-0.33393 10.57675,0.12027 6.919571,1.21773 12.95504,4.67591 17.325697,9.92721 3.254634,3.9104 7.543737,10.35647 9.642385,14.49148 0.51135,1.00751 1.08433,1.29633 1.08433,0.54657 0,-0.42134 4.05876,-8.41054 5.44999,-10.72766 3.3938,-5.65245 8.339018,-11.37359 11.909858,-13.77854 3.818961,-2.57204 9.208761,-4.69442 13.860982,-5.45813 16.6634,-2.73547 29.5082,0.66264 39.90476,10.55685 7.92097,7.53823 12.45035,16.58872 13.95028,27.87507 0.48507,3.64996 0.54995,11.75605 0.12313,15.3843 -0.78506,6.67357 -2.76491,13.15878 -5.61378,18.38854 -5.08584,9.33624 -14.1014,17.34265 -23.21649,20.61778 -4.32593,1.55435 -11.14777,2.14325 -15.56076,1.34331 z m 10.91807,-10.75132 c 4.37375,-0.57028 9.73906,-2.78307 13.38625,-5.52081 2.04678,-1.53641 5.34646,-4.8437 6.99667,-7.01281 1.38114,-1.81543 4.06135,-7.11406 4.88447,-9.65636 1.53712,-4.7475 2.24983,-10.46871 2.02705,-16.27188 -0.46252,-12.04816 -4.33374,-20.95282 -12.44835,-28.63398 -5.92477,-5.60829 -12.27148,-8.29808 -19.59661,-8.30521 -3.44984,-0.003 -5.69453,0.31851 -8.22605,1.17953 -5.68553,1.93377 -10.008021,5.61723 -14.262821,12.15421 -2.59161,3.98169 -5.470621,10.57385 -11.906561,27.26278 l -2.02262,5.24483 2.14634,4.11801 c 6.28338,12.05541 12.062391,18.80954 19.263082,22.51346 5.85757,3.01302 12.05969,3.93216 19.75915,2.92823 z m -83.740619,-4.24978 c 6.310127,-1.07421 13.175252,-6.02996 16.903411,-12.20212 2.809505,-4.65128 6.487861,-13.22414 9.954667,-23.20058 l 1.517053,-4.36563 -1.742171,-3.4543 c -4.32939,-8.58413 -9.454107,-14.5626 -15.255877,-17.79742 -2.190284,-1.2212 -5.84985,-2.34134 -9.346231,-2.86074 -5.491247,-0.81574 -11.716903,0.097 -16.492931,2.41806 -8.370226,4.06776 -13.8392131,11.68587 -15.5742681,21.6944 -0.541869,3.12574 -0.617442,9.94096 -0.148162,13.36146 1.135989,8.28002 4.2467231,14.63473 9.7183731,19.85303 6.082746,5.8011 12.609856,7.89126 20.466136,6.55384 z"
       id="path3763"/>
  </g>
</svg>
